<svg xmlns="http://www.w3.org/2000/svg" width="1548" height="48"><defs><clipPath id="a"><path d="M0 0h1548v48H0z"/></clipPath></defs><g data-name="Updated New Spirit Image web 2" clip-path="url(#a)"><path fill="rgba(255,255,255,0)" d="M0 0h1548v48H0z"/><g data-name="Group 17006"><g data-name="Group 16333"><path data-name="Rectangle 3694" fill="none" d="M0 0h48v48H0z"/><path data-name="Path 6385" d="M32.139 45.5a1.026 1.026 0 0 1-.414-.087l-8.056-3.562-7.564 3.55a1.026 1.026 0 0 1-1.461-.927V31.227C10.819 28.705 8.5 25.198 8.5 21.402V4.526A1.028 1.028 0 0 1 9.529 3.5h28.755a1.028 1.028 0 0 1 1.026 1.026v16.879c0 3.791-2.316 7.3-6.144 9.822v13.244a1.026 1.026 0 0 1-1.027 1.029Zm-8.486-5.8a1.022 1.022 0 0 1 .414.087L31.11 42.9V32.409a25.521 25.521 0 0 1-6.967 2.272h-.004l-.052.012a1.02 1.02 0 0 1-.177.014 1.02 1.02 0 0 1-.18-.014 25.544 25.544 0 0 1-7.031-2.284v10.448l6.521-3.063a1.029 1.029 0 0 1 .438-.1ZM10.555 5.549v15.853c0 2.53 1.287 4.953 3.727 7a21 21 0 0 0 9.622 4.234 21 21 0 0 0 9.625-4.231c2.44-2.052 3.73-4.472 3.73-7V5.552H10.555Zm7.738 10.671a5.611 5.611 0 1 1 11.222 0c0 2.742-2.863 5.7-5.608 5.7s-5.611-2.962-5.611-5.7Zm5.614-3.559a3.562 3.562 0 0 0 0 7.115 3.558 3.558 0 0 0 0-7.115Z" fill="#4d586c" stroke="#4d586c" stroke-width=".5" fill-rule="evenodd"/></g><g data-name="Group 16334"><path data-name="Rectangle 3695" fill="none" d="M60 0h48v48H60z"/><g data-name="Group 16303" fill-rule="evenodd"><path data-name="Path 6329" d="M103.856 24.979H65.289V11.134a1.145 1.145 0 0 0-2.289 0v24.79a1.139 1.139 0 0 0 1.144 1.133h.022a1.139 1.139 0 0 0 1.144-1.134v-8.682h37.4v8.679a1.144 1.144 0 0 0 2.288 0v-9.81a1.139 1.139 0 0 0-1.142-1.131Z" fill="#e81c28"/><path data-name="Path 6330" d="M68.752 17.845a3.953 3.953 0 1 0 3.953-3.891 3.925 3.925 0 0 0-3.953 3.891Zm6.062 0a2.11 2.11 0 1 1-2.109-2.073 2.094 2.094 0 0 1 2.109 2.073Zm2.925-1.346v4.131a.915.915 0 0 0 .922.907h19.777a.915.915 0 0 0 .921-.907v-4.131a.915.915 0 0 0-.921-.907H78.66a.915.915 0 0 0-.922.907Zm1.843.906h17.936v2.317H79.583v-2.317Z" fill="#4d586c"/></g></g><g data-name="Group 16335"><path data-name="Rectangle 3696" fill="none" d="M120 0h48v48h-48z"/><g data-name="Group 16304" fill-rule="evenodd"><path data-name="Path 6331" d="M138.722 21.54a.89.89 0 0 1-.889.89h-7.78a.89.89 0 0 1 0-1.781h7.783a.89.89 0 0 1 .89.89Zm-2.737 2.844h-4.082a.89.89 0 0 0 0 1.779h4.082a.89.89 0 1 0 0-1.781Zm13.289-6.578a.889.889 0 0 0 .889.89h7.781a.89.89 0 0 0 0-1.781h-7.779a.89.89 0 0 0-.89.89ZM165 5.89v27.041a.89.89 0 0 1-.236.6c-1.483 1.6-3.912 1.455-6.988 1.267-3.747-.23-8.411-.515-13.349 2.161a.884.884 0 0 1-.861 0c-4.956-2.635-9.6-2.386-13.341-2.156-3.075.188-5.505.337-6.988-1.267a.89.89 0 0 1-.236-.6V5.89a.89.89 0 0 1 1.31-.785c4.942 2.679 9.605 2.393 13.354 2.165 2.659-.162 4.835-.3 6.336.707 1.5-1 3.674-.871 6.336-.707 3.747.23 8.411.515 13.351-2.163a.89.89 0 0 1 1.313.782Zm-21.889 3.641c-1-.751-2.938-.633-5.338-.486-3.456.21-8.087.5-12.995-1.722v25.216c1 .751 2.938.633 5.338.486q1.8-.126 3.6-.139a22.315 22.315 0 0 1 9.393 1.861V9.533Zm20.111-2.208c-4.908 2.218-9.539 1.934-12.995 1.722-2.4-.146-4.338-.265-5.338.486v25.217c4.906-2.218 9.537-1.934 12.995-1.722 2.4.146 4.336.265 5.338-.487Zm-5.276 13.327h-7.781a.89.89 0 1 0 0 1.781h7.783a.89.89 0 0 0 0-1.781Zm-20.109-3.736h-7.784a.89.89 0 1 0 0 1.781h7.783a.89.89 0 0 0 0-1.781Zm18.262 7.469h-4.084a.89.89 0 0 0 0 1.779h4.084a.89.89 0 1 0 0-1.781Z" fill="#e81c28"/><path data-name="Path 6332" d="M164.715 36.04a.89.89 0 0 1 .049 1.256c-1.483 1.6-3.912 1.457-6.988 1.267-3.747-.23-8.411-.515-13.353 2.163a.89.89 0 0 1-.847 0 18.507 18.507 0 0 0-5.9-2.007v4.079a.89.89 0 0 1-1.321.777l-2.415-1.34-2.415 1.34a.889.889 0 0 1-1.319-.777v-4.234c-3.069.188-5.494.333-6.973-1.269a.89.89 0 0 1 1.3-1.208c.911.984 2.969.858 5.575.7 3.666-.225 8.65-.529 13.883 2.151 5.243-2.679 10.227-2.374 13.893-2.152 2.606.162 4.663.287 5.575-.7a.89.89 0 0 1 1.256-.049Zm-28.813 2.464a31.469 31.469 0 0 0-3.915-.04v2.82l1.526-.847a.89.89 0 0 1 .863 0l1.525.847v-2.78Z" fill="#4d586c"/></g></g><g data-name="Group 16336"><path data-name="Rectangle 3697" fill="none" d="M180 0h48v48h-48z"/><g data-name="Group 16305" fill-rule="evenodd"><path data-name="Path 6333" d="M209.578 17V4.752h1.736V3h-13.9v1.752h1.739V17S187 34.5 187 39.749 192.212 45 192.212 45h24.314s5.21 0 5.21-5.251S209.578 17 209.578 17Zm6.943 26.249h-24.312a3.282 3.282 0 0 1-3.474-3.5c-.003-3.421 7.267-15.155 11.844-21.749l.313-.454V4.752h6.948v12.8l.312.454c4.58 6.588 11.844 18.322 11.844 21.742a3.278 3.278 0 0 1-3.475 3.5Z" fill="#e81c28"/><path data-name="Path 6334" d="M199.155 36.646a1.736 1.736 0 1 1-1.735-1.75 1.742 1.742 0 0 1 1.735 1.75Zm10.377 2.453a2.34 2.34 0 1 1-2.34-2.358 2.348 2.348 0 0 1 2.341 2.358Zm-4.155-3.14a2.191 2.191 0 1 1-2.191-2.209 2.2 2.2 0 0 1 2.192 2.209Zm-2.595-2.813a3.262 3.262 0 1 1 3.237-3.262 3.251 3.251 0 0 1-3.237 3.262Zm4.885-3.033a1.74 1.74 0 1 1 .5 1.234 1.742 1.742 0 0 1-.5-1.234Zm1.893 4.158a1.144 1.144 0 1 1-1.144-1.152 1.148 1.148 0 0 1 1.145 1.153Z" fill="#4d586c"/></g></g><g data-name="Group 16337"><path data-name="Rectangle 3698" fill="none" d="M240 0h48v48h-48z"/><g data-name="Group 16306"><g data-name="Group 16282"><path data-name="Path 6335" d="M248.1 26.616h16.41a2.542 2.542 0 0 0 1.955-.935 2.4 2.4 0 0 0 .51-2.126 10.923 10.923 0 0 0-21.34 0 2.343 2.343 0 0 0 .51 2.126 2.542 2.542 0 0 0 1.955.935Zm-.935-2.721a9.4 9.4 0 0 1 18.364 0 1.682 1.682 0 0 1-.17.85.923.923 0 0 1-.765.34H248.1a.829.829 0 0 1-.765-.34.989.989 0 0 1-.169-.85Zm-1.444 5.611a.468.468 0 0 1 .425.17h.085a1.8 1.8 0 0 0 1.445.68 1.865 1.865 0 0 0 1.445-.6c.255-.17.34-.255.51-.255a.468.468 0 0 1 .425.17h.085a1.991 1.991 0 0 0 1.445.6 1.865 1.865 0 0 0 1.445-.6.606.606 0 0 1 .51-.255.468.468 0 0 1 .425.17h.085a1.991 1.991 0 0 0 1.445.6 1.865 1.865 0 0 0 1.445-.6.606.606 0 0 1 .51-.255.468.468 0 0 1 .425.17h.085a1.991 1.991 0 0 0 1.445.6 1.865 1.865 0 0 0 1.445-.6.606.606 0 0 1 .51-.255.468.468 0 0 1 .425.17h.085a1.991 1.991 0 0 0 1.445.6 1.865 1.865 0 0 0 1.445-.6.606.606 0 0 1 .51-.255.468.468 0 0 1 .425.17h.085a1.991 1.991 0 0 0 1.445.6.765.765 0 1 0 0-1.53.468.468 0 0 1-.425-.17h-.085a1.991 1.991 0 0 0-1.445-.6 1.865 1.865 0 0 0-1.445.6.606.606 0 0 1-.51.255.468.468 0 0 1-.425-.17h-.081a1.991 1.991 0 0 0-1.445-.6 1.865 1.865 0 0 0-1.445.6.606.606 0 0 1-.51.255.468.468 0 0 1-.425-.17h-.085a1.991 1.991 0 0 0-1.445-.6 1.865 1.865 0 0 0-1.445.6.606.606 0 0 1-.51.255.468.468 0 0 1-.425-.17h-.085a1.991 1.991 0 0 0-1.445-.6 1.865 1.865 0 0 0-1.445.6.606.606 0 0 1-.51.255.468.468 0 0 1-.425-.17h-.088a1.991 1.991 0 0 0-1.445-.6 1.865 1.865 0 0 0-1.445.6.606.606 0 0 1-.51.255.468.468 0 0 1-.425-.17h-.086a1.991 1.991 0 0 0-1.445-.6.762.762 0 0 0-.765.765.75.75 0 0 0 .765.68Zm0 2.891h21.425a.765.765 0 0 0 0-1.53h-21.425a.765.765 0 0 0 0 1.53Zm38.514 7.312h-15.644v.085h-3.656a5.375 5.375 0 0 0 1.87-3.316 2.343 2.343 0 0 0-.51-2.126 2.542 2.542 0 0 0-1.955-.935H248.1a2.542 2.542 0 0 0-1.955.935 2.4 2.4 0 0 0-.51 2.126 5.808 5.808 0 0 0 1.87 3.316h-3.74a.762.762 0 0 0-.765.765v3.656a.754.754 0 0 0 .765.6h40.47a.762.762 0 0 0 .765-.765v-3.661a.75.75 0 0 0-.765-.68Zm-.765 1.445v2.126h-38.94v-2.126h38.94Zm-36.3-5.1a1.181 1.181 0 0 1 .17-.935.923.923 0 0 1 .765-.34h16.405a.829.829 0 0 1 .765.34 1.047 1.047 0 0 1 .17.85c-.765 3.571-3.656 3.571-7.907 3.571H253.2c-3.4.085-5.441-.51-6.036-3.486Z" fill="#e81c28"/></g><path data-name="Path 6336" d="M279.816 11.227a6.538 6.538 0 0 0-1.275-.85c-.51-.255-.6-.34-.6-1.105v-.766a1.1 1.1 0 0 0 .765-1.02V5.105A1.125 1.125 0 0 0 277.603 4h-4.421a1.125 1.125 0 0 0-1.105 1.105v2.381a1.021 1.021 0 0 0 .935 1.02v.51c0 .85-.17.935-.68 1.19a4.484 4.484 0 0 0-1.19.85 6.429 6.429 0 0 0-2.126 4.844v24.064h.935V26.105h10.883v13.774h1.02V15.988a6.479 6.479 0 0 0-2.038-4.761Zm-6.719-6.037a.083.083 0 0 1 .085-.085h4.421a.083.083 0 0 1 .085.085v2.381a.083.083 0 0 1-.085.085h-4.421a.083.083 0 0 1-.085-.085Zm7.737 19.98h-10.883v-8.332h10.883v8.332Zm-10.883-9.352a5.375 5.375 0 0 1 1.87-3.911 10.415 10.415 0 0 1 1.02-.68 1.944 1.944 0 0 0 1.191-2.127v-.51h2.891v.68a1.9 1.9 0 0 0 1.19 2.04 3.557 3.557 0 0 1 1.02.68 5.587 5.587 0 0 1 1.783 3.828Z" fill="#4d586c" stroke="#4d586c" stroke-miterlimit="10" stroke-width=".5"/></g></g><g data-name="Group 16338"><path data-name="Rectangle 3699" fill="none" d="M300 0h48v48h-48z"/><g data-name="Group 16284" fill-rule="evenodd"><path data-name="Path 6337" d="M343.525 4.476a.941.941 0 0 0-.558-.269c-23.375-6.672-45.489 15.5-38.732 38.918a.937.937 0 0 0 .64.642c23.464 6.77 45.686-15.453 38.88-38.884a.937.937 0 0 0-.23-.4Zm-1.451 1.452a28.712 28.712 0 0 1 .193 14.568 49.928 49.928 0 0 1-14.762-14.762 28.73 28.73 0 0 1 14.568.193Zm-16.469.353A51.228 51.228 0 0 0 341.723 22.4a30.276 30.276 0 0 1-19.392 19.339 51.235 51.235 0 0 0-16.063-16.08 30.279 30.279 0 0 1 19.336-19.381Zm-11.793 27.826a48.269 48.269 0 0 1 6.613 8.17 28.82 28.82 0 0 1-14.506-.2 28.814 28.814 0 0 1-.193-14.518 48.359 48.359 0 0 1 8.086 6.548Z" fill="#e81c28"/><path data-name="Path 6338" d="M331.412 16.568a.948.948 0 0 0-1.339.025l-2.017 2.021-.666-.668a.951.951 0 1 0-1.345 1.345l.666.668-1.345 1.345-.666-.668a.951.951 0 1 0-1.344 1.346l.666.666-1.345 1.345-.666-.666a.953.953 0 1 0-1.355 1.341l.666.666-1.345 1.345-.666-.666a.951.951 0 1 0-1.345 1.345l.666.666-2.014 2.023a.945.945 0 1 0 1.338 1.335l2.015-2.014.668.668a.951.951 0 1 0 1.345-1.345l-.668-.668 1.345-1.344.668.666A.951.951 0 1 0 324.674 26l-.668-.666 1.35-1.35.668.666a.951.951 0 1 0 1.345-1.345l-.668-.666 1.345-1.345.668.666a.951.951 0 1 0 1.342-1.346l-.668-.666 2.018-2.018a.948.948 0 0 0 .006-1.362Z" fill="#4d586c"/></g></g><g data-name="Group 16339"><path data-name="Rectangle 3700" fill="none" d="M360 0h48v48h-48z"/><g data-name="Group 16307"><path data-name="Path 6339" d="M404.328 3h-40.656a.7.7 0 0 0-.672.625v27.35a.642.642 0 0 0 .672.625h4.872a.79.79 0 0 0 .588-.234.456.456 0 0 0 .084-.547l-2.016-6.955 4.62-15.472a5.442 5.442 0 0 0 1.26.156 4.521 4.521 0 0 0 1.848-.391 2.735 2.735 0 0 1 1.26-.234 4.4 4.4 0 0 1 1.26.234 4.566 4.566 0 0 0 3.7 0 2.735 2.735 0 0 1 1.26-.234c.42 0 .672.078.84.078v2.188h-.672a.634.634 0 0 0-.672.469l-.924 2.5a1.733 1.733 0 0 0 .252 1.563 1.844 1.844 0 0 0 1.512.7h2.352a1.844 1.844 0 0 0 1.512-.7 1.733 1.733 0 0 0 .252-1.563l-.924-2.5a.726.726 0 0 0-.672-.469h-.672V8.47a2.775 2.775 0 0 0 .84.078 4.521 4.521 0 0 0 1.848-.391 2.735 2.735 0 0 1 1.26-.234 3.852 3.852 0 0 1 1.26.234 4.566 4.566 0 0 0 3.7 0 2.735 2.735 0 0 1 1.26-.234 2.02 2.02 0 0 1 1.092.234l4.948 15.707-2.016 6.955a.6.6 0 0 0 .084.547.79.79 0 0 0 .588.234h4.872a.64.64 0 0 0 .672-.625V3.625a.7.7 0 0 0-.672-.625ZM385.6 13.471a.327.327 0 0 1-.084.391.668.668 0 0 1-.42.156h-2.356a.926.926 0 0 1-.42-.156c-.084-.078-.084-.234-.084-.391l.756-2.032h1.764Zm16.464 9.69-4.456-14.613h.42a4.521 4.521 0 0 0 1.848-.391 2.735 2.735 0 0 1 1.26-.234 3.852 3.852 0 0 1 1.26.234 4.15 4.15 0 0 0 1.176.313v14.691h-1.512Zm-37.632 0V7.923a4.263 4.263 0 0 1 .588.234 4.566 4.566 0 0 0 3.7 0 2.735 2.735 0 0 1 1.26-.234 1.33 1.33 0 0 1 .58.077l-4.62 15.161h-1.512Zm0 7.189v-5.861h1.6l1.668 5.861h-3.272Zm28.64-23.365a2.735 2.735 0 0 1-1.26.234 3.852 3.852 0 0 1-1.26-.234 4.566 4.566 0 0 0-3.7 0 2.735 2.735 0 0 1-1.26.234 3.852 3.852 0 0 1-1.26-.234 4.566 4.566 0 0 0-3.7 0 2.735 2.735 0 0 1-1.26.234 3.852 3.852 0 0 1-1.26-.234 4.521 4.521 0 0 0-1.848-.391 3.88 3.88 0 0 0-1.932.391 2.735 2.735 0 0 1-1.26.234 3.852 3.852 0 0 1-1.26-.234 3.52 3.52 0 0 0-1.848-.391 4.521 4.521 0 0 0-1.848.391 2.986 2.986 0 0 1-1.26.234 3.408 3.408 0 0 1-1.336-.234 2.808 2.808 0 0 0-1.092-.391V4.25h39.228v2.892a4.263 4.263 0 0 1-.588-.234 4.566 4.566 0 0 0-3.7 0 2.735 2.735 0 0 1-1.26.234 4.4 4.4 0 0 1-1.26-.234A4.521 4.521 0 0 0 395 6.516a4.409 4.409 0 0 0-1.928.469ZM400.3 30.35l1.68-5.861h1.6v5.861Z" fill="#e81c28"/><path data-name="Path 6340" d="M383.199 17.998h1.7v2.1h-1.7Zm4.175-.007 1.52-.76.85 1.7-1.52.76Zm-9.115.887.85-1.7 1.52.761-.85 1.7Z" fill="#e81c28"/><path data-name="Path 6341" d="M404.315 33.3h-16.123v-6.7h.672a.764.764 0 0 0 .672-.6l.672-3.3a.749.749 0 0 0-.168-.7.711.711 0 0 0-.588-.3h-1.26v-3.3a.794.794 0 0 0-.336-.7l-2.1-1.7-.756 1.4 1.763 1.4v2.9h-8.4a.711.711 0 0 0-.588.3 1.087 1.087 0 0 0-.168.7l.672 3.3a.666.666 0 0 0 .672.6h.84v6.7h-16.119a.737.737 0 0 0-.672.8v10c0 .5.336.9.672.9h40.559a.737.737 0 0 0 .672-.8v-10a.726.726 0 0 0-.588-.9Zm-25.024-10h9.4l-.331 1.7h-8.733l-.336-1.7Zm1.931 3.4h5.626v6.7h-5.626v-6.7ZM367.2 39.2a.731.731 0 0 1 .672-.8.8.8 0 0 1 .672.8.731.731 0 0 1-.672.8.8.8 0 0 1-.672-.8Zm6.3 0a.731.731 0 0 1 .672-.8.8.8 0 0 1 .672.8.731.731 0 0 1-.672.8.8.8 0 0 1-.672-.8Zm6.3 0a.682.682 0 1 1 .672.8.8.8 0 0 1-.677-.8Zm6.97 0a.682.682 0 1 1 .672.8.8.8 0 0 1-.678-.8Zm6.3 0a.731.731 0 0 1 .672-.8.8.8 0 0 1 .672.8.731.731 0 0 1-.672.8.8.8 0 0 1-.68-.8Zm6.3 0a.682.682 0 1 1 .672.8.8.8 0 0 1-.682-.8Zm4.2 4.1h-2.782v-1.8a2.456 2.456 0 0 0 1.428-2.3 2.3 2.3 0 0 0-2.1-2.5 2.3 2.3 0 0 0-2.1 2.5 2.357 2.357 0 0 0 1.428 2.3v1.8h-4.87v-1.8A2.456 2.456 0 0 0 396 39.2a2.3 2.3 0 0 0-2.1-2.5 2.3 2.3 0 0 0-2.1 2.5 2.357 2.357 0 0 0 1.428 2.3v1.8h-5.036v-1.8a2.456 2.456 0 0 0 1.428-2.3 2.3 2.3 0 0 0-2.1-2.5 2.3 2.3 0 0 0-2.1 2.5 2.357 2.357 0 0 0 1.428 2.3v1.8h-5.626v-1.8a2.456 2.456 0 0 0 1.428-2.3 2.3 2.3 0 0 0-2.1-2.5 2.3 2.3 0 0 0-2.1 2.5 2.357 2.357 0 0 0 1.428 2.3v1.8h-4.87v-1.8a2.456 2.456 0 0 0 1.428-2.3 2.3 2.3 0 0 0-2.1-2.5 2.3 2.3 0 0 0-2.1 2.5 2.357 2.357 0 0 0 1.428 2.3v1.8h-5.038v-1.8a2.456 2.456 0 0 0 1.428-2.3 2.3 2.3 0 0 0-2.1-2.5 2.3 2.3 0 0 0-2.1 2.5 2.357 2.357 0 0 0 1.428 2.3v1.8h-2.854V35h39.215v8.3Z" fill="#4d586c"/></g></g><g data-name="Group 16340"><path data-name="Rectangle 3701" fill="none" d="M420 0h48v48h-48z"/><g data-name="Group 16308" transform="translate(422.315 .1)"><path data-name="Path 6342" d="M11.024 33.854h-.853a.443.443 0 0 0-.341.171 4.376 4.376 0 0 1-2.9 1.109 4.119 4.119 0 0 1-2.987-1.195c-.085 0-.256-.085-.341-.085h-.856a1.482 1.482 0 0 0-1.448 1.621l-.6 5.547a1.753 1.753 0 0 0 1.195 1.532 18.737 18.737 0 0 0 4.95.683 18.737 18.737 0 0 0 4.95-.683 1.725 1.725 0 0 0 1.195-1.536l-.6-5.547a1.3 1.3 0 0 0-1.364-1.617Z" fill="#4d586c"/><circle data-name="Ellipse 220" cx="3.328" cy="3.328" r="3.328" transform="translate(3.599 27.454)" fill="#4d586c"/><path data-name="Path 6343" d="M25.958 33.854h-.853a.443.443 0 0 0-.341.171 4.5 4.5 0 0 1-2.987 1.195 4.119 4.119 0 0 1-2.987-1.195.647.647 0 0 0-.343-.171h-.853a1.482 1.482 0 0 0-1.447 1.621l-.6 5.547a1.753 1.753 0 0 0 1.195 1.532 18.284 18.284 0 0 0 9.9 0 1.725 1.725 0 0 0 1.195-1.536l-.6-5.547a1.279 1.279 0 0 0-1.279-1.617Z" fill="#4d586c"/><circle data-name="Ellipse 221" cx="3.328" cy="3.328" r="3.328" transform="translate(18.448 27.454)" fill="#4d586c"/><path data-name="Path 6344" d="M42.258 35.475a1.482 1.482 0 0 0-1.451-1.621h-.853a.443.443 0 0 0-.341.171 4.5 4.5 0 0 1-2.987 1.195 4.119 4.119 0 0 1-2.987-1.195.647.647 0 0 0-.343-.171h-.853a1.482 1.482 0 0 0-1.447 1.621l-.6 5.547a1.753 1.753 0 0 0 1.195 1.532 18.284 18.284 0 0 0 9.9 0 1.725 1.725 0 0 0 1.195-1.536l-.427-5.547Z" fill="#4d586c"/><circle data-name="Ellipse 222" cx="3.328" cy="3.328" r="3.328" transform="translate(33.383 27.454)" fill="#4d586c"/><path data-name="Path 6345" d="M40.978 3.9H18.363a1.5 1.5 0 0 0-1.451 1.451v18.774a1.494 1.494 0 0 0 1.451 1.451h22.615a1.5 1.5 0 0 0 1.451-1.451V5.436A1.514 1.514 0 0 0 40.978 3.9Zm-.939 2.39v16.982H36.8a1.458 1.458 0 0 0-1.365-1.28h-2.991a1.386 1.386 0 0 0-1.365 1.28H19.216V6.29h20.823ZM14.352 19.261c-.256-1.365-.6-2.987-.853-4.694a4.4 4.4 0 0 0-.768-1.707 4.248 4.248 0 0 0-1.451-1.28 2.556 2.556 0 0 0-.853-.341l-.6-.171-1.193 4.78-.256-3.072a.642.642 0 0 0 .427-.6v-.256a.583.583 0 0 0-.6-.6H7.7a.583.583 0 0 0-.6.6v.256a.642.642 0 0 0 .427.6l-.256 3.072-1.197-4.694-.6.171a2.556 2.556 0 0 0-.853.341 5.225 5.225 0 0 0-1.451 1.28 5.21 5.21 0 0 0-.77 1.707c-.341 1.707-.6 3.328-.853 4.694C1.039 22.077.7 23.955.7 23.955a1.107 1.107 0 0 0 .768 1.195 1.107 1.107 0 0 0 1.195-.768s.427-1.792 1.024-4.608c.171-.768.341-1.621.6-2.56L3.6 24.723a.457.457 0 0 0 .427.427h7.851a.457.457 0 0 0 .427-.427l-.683-7.51c.256.853.427 1.707.6 2.475.6 2.731 1.024 4.608 1.024 4.608a1.054 1.054 0 0 0 1.195.768.949.949 0 0 0 .768-1.195s-.341-1.792-.853-4.608Z" fill="#e81c28"/><circle data-name="Ellipse 223" cx="3.243" cy="3.243" r="3.243" transform="translate(4.794 4.412)" fill="#e81c28"/></g></g><g data-name="Group 16341"><path data-name="Rectangle 3702" fill="none" d="M480 0h48v48h-48z"/><g data-name="Group 16309" fill-rule="evenodd"><path data-name="Path 6346" d="M504.962 12.004h-18.651a3.317 3.317 0 0 0-3.311 3.31v11.02a3.318 3.318 0 0 0 3.311 3.315h18.651a3.318 3.318 0 0 0 3.314-3.314V15.314a3.318 3.318 0 0 0-3.314-3.31Zm1.414 14.335a1.416 1.416 0 0 1-1.414 1.414h-18.651a1.416 1.416 0 0 1-1.414-1.414V15.314a1.416 1.416 0 0 1 1.414-1.41h18.651a1.416 1.416 0 0 1 1.413 1.41v11.02Zm-4.3 8.352h-2.165l-.779-3.353a.95.95 0 1 0-1.851.429l.679 2.923h-4.64l.679-2.923a.95.95 0 0 0-1.85-.429l-.78 3.353h-2.174a.95.95 0 0 0 0 1.9h12.885a.95.95 0 0 0 0-1.9Z" fill="#e81c28"/><path data-name="Path 6347" d="M524.05 12.004h-12.395a.95.95 0 0 0-.951.95v22.684a.95.95 0 0 0 .951.95h12.4a.95.95 0 0 0 .95-.95V12.95a.95.95 0 0 0-.95-.95Zm-.95 22.688h-10.5V13.904h10.5v20.784Z" fill="#4d586c"/><path data-name="Path 6348" d="M515.45 18.651h4.8a.95.95 0 1 0 0-1.9h-4.8a.95.95 0 1 0 0 1.9Zm0 3.8h4.8a.951.951 0 0 0 0-1.9h-4.8a.951.951 0 0 0 0 1.9Zm2.4 6.533a1.387 1.387 0 1 0 1.424 1.425 1.427 1.427 0 0 0-1.424-1.423Zm0 1.9a.476.476 0 1 1 .453-.476.476.476 0 0 1-.453.479Z" fill="#4d586c"/></g></g><g data-name="Group 16342"><path data-name="Rectangle 3703" fill="none" d="M540 0h48v48h-48z"/><g data-name="Group 16310" fill-rule="evenodd"><path data-name="Path 6349" d="M581.806 17.686a3.145 3.145 0 0 0-1.607.441v-.887a3.2 3.2 0 1 0-6.393 0v3.733h-19.609V17.24a3.2 3.2 0 1 0-6.393 0v.887a3.148 3.148 0 0 0-1.607-.441 3.222 3.222 0 0 0-3.2 3.24v6.157a3.222 3.222 0 0 0 3.2 3.24 3.148 3.148 0 0 0 1.607-.441v.886a3.2 3.2 0 1 0 6.393 0v-3.729h19.607v3.729a3.2 3.2 0 1 0 6.392 0v-.887a3.148 3.148 0 0 0 1.607.441 3.22 3.22 0 0 0 3.2-3.239v-6.158a3.222 3.222 0 0 0-3.2-3.24Zm-35.609 11.026a1.621 1.621 0 0 1-1.608-1.629v-6.158a1.608 1.608 0 1 1 3.215 0v6.158a1.62 1.62 0 0 1-1.607 1.629Zm6.411 2.061a1.61 1.61 0 1 1-3.219 0V17.24a1.608 1.608 0 1 1 3.215 0Zm1.589-5.341v-2.853h19.607v2.849h-19.607Zm24.412 5.341a1.608 1.608 0 1 1-3.215 0V17.24a1.608 1.608 0 1 1 3.215 0Zm4.8-3.686a1.608 1.608 0 1 1-3.215 0v-6.162a1.608 1.608 0 1 1 3.215 0Z" fill="#e81c28"/><path data-name="Path 6350" d="M573.805 20.97h-19.608v6.07h19.607v-6.07Zm-19.608 1.611h19.607v2.848h-19.607V22.58Z" fill="#4d586c"/></g></g><g data-name="Group 16343"><path data-name="Rectangle 3704" fill="none" d="M600 0h48v48h-48z"/><g data-name="Group 16311" fill-rule="evenodd"><path data-name="Path 6351" d="M624.116 3A11.082 11.082 0 0 0 613 14.02v19.96a11.119 11.119 0 0 0 22.237 0V14.02A11.084 11.084 0 0 0 624.116 3Zm0 1.922a9.149 9.149 0 0 1 9.18 9.1v9.018h-18.359v-9.02a9.15 9.15 0 0 1 9.18-9.1Zm0 38.155a9.149 9.149 0 0 1-9.179-9.1V24.96h18.36v9.018a9.15 9.15 0 0 1-9.181 9.1Z" fill="#e81c28"/><path data-name="Path 6352" d="M617.297 30.59a.965.965 0 0 0 .969-.961v-2.236a.97.97 0 0 0-1.939 0v2.236a.965.965 0 0 0 .97.961Zm6.816 9.187a5.83 5.83 0 0 1-5.85-5.8v-1.155a.97.97 0 0 0-1.939 0v1.158a7.763 7.763 0 0 0 7.79 7.72.961.961 0 1 0 0-1.922Zm3.626-30.3a5.754 5.754 0 0 1 2.225 4.546v7.3a.97.97 0 0 0 1.939 0v-7.302a7.658 7.658 0 0 0-2.957-6.052.976.976 0 0 0-1.364.155.956.956 0 0 0 .158 1.35Zm-3.626-1.255a5.95 5.95 0 0 1 1.476.186.969.969 0 0 0 1.183-.689.959.959 0 0 0-.693-1.17 7.856 7.856 0 0 0-1.966-.25.961.961 0 1 0 0 1.922Z" fill="#4d586c"/></g></g><g data-name="Group 16344"><path data-name="Rectangle 3705" fill="none" d="M660 0h48v48h-48z"/><g data-name="Group 16312" fill-rule="evenodd"><path data-name="Path 6353" d="M704.865 29.984a7.558 7.558 0 0 1-7.55 7.55h-3.023v6.359a1.109 1.109 0 0 1-1.107 1.109h-28.076A1.109 1.109 0 0 1 664 43.893V12.981a1.108 1.108 0 0 1 1.109-1.109h7.111c.785-1.193 2.543 1.109 2.543 1.109s-1.911 1.6-1.69 1.107h-6.855v28.7h25.856v-6.012a1.106 1.106 0 0 1-.055-.351V20.447a1.106 1.106 0 0 1 .057-.351v-6.008h-8.334a1.109 1.109 0 1 1 0-2.216h9.445a1.108 1.108 0 0 1 1.105 1.109v6.357h3.023a7.558 7.558 0 0 1 7.55 7.55Zm-7.55-8.428h-3.023v13.76h3.023a5.339 5.339 0 0 0 5.332-5.331v-3.1a5.339 5.339 0 0 0-5.332-5.331Z" fill="#e81c28"/><path data-name="Path 6354" d="M671.105 17.556a8.926 8.926 0 0 1 1.883-5.269c1.747-2.18 1.785-5.746.079-7.34a1.109 1.109 0 1 1 1.511-1.62c2.843 2.654 2.357 7.582.141 10.346-1.635 2.038-2.041 5.644-.141 7.416a1.109 1.109 0 1 1-1.512 1.622 6.665 6.665 0 0 1-1.961-5.155Zm8.671 0a8.917 8.917 0 0 1 1.884-5.269c1.747-2.18 1.785-5.746.077-7.34a1.109 1.109 0 1 1 1.511-1.62c2.843 2.654 2.353 7.582.139 10.346-1.633 2.038-2.041 5.644-.139 7.416a1.11 1.11 0 0 1-1.513 1.622 6.664 6.664 0 0 1-1.958-5.155Z" fill="#4d586c"/></g></g><g data-name="Group 16345"><path data-name="Rectangle 3706" fill="none" d="M720 0h48v48h-48z"/><g data-name="Group 16313"><path data-name="Path 6355" d="M758.013 10.76a3.916 3.916 0 0 0-3.881 3.88 1.546 1.546 0 0 0 1.552 1.553h4.657a1.349 1.349 0 0 0 .862-.259 1.686 1.686 0 0 0 .6-1.294 3.639 3.639 0 0 0-3.79-3.88Zm0 1.552a2.432 2.432 0 0 1 2.328 2.328h-4.657a2.368 2.368 0 0 1 2.329-2.328Z" fill="#4d586c"/><path data-name="Path 6356" d="M735.677 11.104a7.743 7.743 0 0 0-7.675 7.33l-1.294.949a6.985 6.985 0 0 0-2.759 5.606v5.862a4.785 4.785 0 0 0 4.743 4.743h23.026v-1.55h-22.94a3.183 3.183 0 0 1-3.19-3.193v-5.862a5.473 5.473 0 0 1 2.156-4.4l1.811-1.38v-.431a6.183 6.183 0 0 1 6.209-6.209h11.9a5.787 5.787 0 0 1 2.415.517l.6-1.466a7.265 7.265 0 0 0-3.018-.6h-11.466l-.517.086Z" fill="#e81c28"/><path data-name="Path 6357" d="m728.002 18.694-.517 1.466 2.07.69a5.8 5.8 0 0 0 2.07.345l18.541.086v-1.554l-18.542-.084a4.883 4.883 0 0 1-1.552-.259l-2.07-.69Zm-3.967 9.486a4.785 4.785 0 0 0 4.743 4.747h23.026v-1.556h-23.026a3.183 3.183 0 0 1-3.191-3.191Zm3.967 6.813v3.967a1.822 1.822 0 0 0 1.811 1.811h1.983a1.822 1.822 0 0 0 1.811-1.811v-3.967h-1.552v3.967a.229.229 0 0 1-.259.259h-2.069a.275.275 0 0 1-.259-.259v-3.967Z" fill="#e81c28"/><path data-name="Path 6358" d="M730.761 23.609A2.779 2.779 0 0 0 728 26.368a2.724 2.724 0 0 0 2.76 2.76 2.779 2.779 0 0 0 2.76-2.76 2.838 2.838 0 0 0-2.759-2.759Zm0 1.552a1.207 1.207 0 1 1-1.207 1.207 1.179 1.179 0 0 1 1.207-1.207Zm-5-9.055a2.779 2.779 0 0 0-2.761 2.76v1.035a1.822 1.822 0 0 0 1.811 1.811h1.38v-1.553h-1.38c-.086 0-.172-.086-.172-.259v-1.034a1.179 1.179 0 0 1 1.207-1.207h3.018v-1.553h-3.104Zm11.3 7.5a.773.773 0 0 0-.776.776v.172l.776 3.881a.828.828 0 0 0 .776.6H748.7a.828.828 0 0 0 .776-.6l.776-3.881a.794.794 0 0 0-.6-.949h-12.595Zm.949 1.552h10.517l-.427 2.332h-9.663Z" fill="#e81c28"/><path data-name="Path 6359" d="M758.013 8a6.956 6.956 0 0 0-6.985 6.985c0 3.018 1.9 7.589 2.76 9.573a2.241 2.241 0 0 0 2.07 1.38h4.312a2.157 2.157 0 0 0 2.07-1.38c.862-1.983 2.76-6.554 2.76-9.573A6.956 6.956 0 0 0 758.015 8Zm0 1.552a5.41 5.41 0 0 1 5.433 5.433c0 2.328-1.811 7.072-2.673 8.969a2.621 2.621 0 0 1-.6.431h-4.316a1.185 1.185 0 0 1-.69-.431c-.862-1.9-2.673-6.64-2.673-8.883a5.558 5.558 0 0 1 5.519-5.519Z" fill="#4d586c"/><path data-name="Path 6360" d="M757.237 25.162v11.642h1.552V25.162Z" fill="#4d586c"/><path data-name="Path 6361" d="M757.236 36.028a2.319 2.319 0 0 0-2.328 2.328v2.328h6.209v-2.328a2.319 2.319 0 0 0-2.328-2.328Zm0 1.552h1.552a.773.773 0 0 1 .776.776v.776h-3.1v-.776a.773.773 0 0 1 .776-.776Zm-.776-20.18a.773.773 0 0 0-.776.776v3.1a.776.776 0 0 0 1.552 0v-3.1a.773.773 0 0 0-.776-.776Zm3.1-.086a.773.773 0 0 0-.776.776v3.1a.776.776 0 0 0 1.552 0v-3.1a.91.91 0 0 0-.771-.776Zm-2.415-3.881v1.983h1.552v-1.983Z" fill="#4d586c"/></g></g><g data-name="Group 16346"><path data-name="Rectangle 3707" fill="none" d="M780 0h48v48h-48z"/><g data-name="Group 16314"><path data-name="Path 6362" d="M818.743 20.314h-3.514v-6a11.315 11.315 0 1 0-22.629 0v6h-3.429A3.22 3.22 0 0 0 786 23.486v18.343A3.22 3.22 0 0 0 789.171 45h29.572a3.22 3.22 0 0 0 3.171-3.171V23.486a3.22 3.22 0 0 0-3.171-3.171Zm-23.914-6a9.086 9.086 0 1 1 18.171 0v6h-18.171v-6Zm24.857 27.515a.951.951 0 0 1-.943.943h-29.572a.951.951 0 0 1-.943-.943V23.486a.951.951 0 0 1 .943-.943h29.572a.951.951 0 0 1 .943.943v18.343Z" fill="#e81c28"/><path data-name="Path 6363" d="M803.914 26.914a3.8 3.8 0 0 0-3.771 3.771 3.484 3.484 0 0 0 .857 2.229l.171.257v2.657a2.743 2.743 0 1 0 5.486 0v-2.657l.171-.257a3.484 3.484 0 0 0 .857-2.229 3.75 3.75 0 0 0-3.771-3.771Zm1.629 5.486a.611.611 0 0 0-.257.514v2.829a1.371 1.371 0 0 1-2.743 0v-2.829a.611.611 0 0 0-.257-.514 2.4 2.4 0 1 1 3.257 0Z" fill="#4d586c"/></g></g><g data-name="Group 16347"><path data-name="Rectangle 3708" fill="none" d="M840 0h48v48h-48z"/><g data-name="Group 16315" transform="translate(842.5 2.804)"><path data-name="Path 6364" d="M17.86 20.185c.084 0 .169-.084.253-.084Z" fill="#e81c28"/><path data-name="Path 6365" d="m17.944 20.523-.337-.759.253-.084.422.759c-.085 0-.169.084-.338.084Z" fill="#909090"/><circle data-name="Ellipse 224" cx="3.964" cy="3.964" r="3.964" transform="translate(13.728 5.175)" fill="#4d586c"/><path data-name="Path 6366" d="M22.92 19.005v2.366a1.632 1.632 0 0 0 2.614 1.6c.422-.337 2.53-1.687 2.53-1.687l1.349-.928a7.617 7.617 0 0 0 .928-.675 1.679 1.679 0 0 0 .675-1.01 1.826 1.826 0 0 0-.169-1.012l5.144-3.964a.54.54 0 0 0-.675-.843L30.172 16.9a1.589 1.589 0 0 0-.675-.169 2.475 2.475 0 0 0-1.434.506l-.169.169-1.265.843a3.751 3.751 0 0 0-1.1-2.7A5.755 5.755 0 0 0 21.65 14.2h-2.103l-1.434 2.446-1.433-2.448h-2.024c-4.638 0-4.976 3.2-4.976 4.638v8.265h3.373v-7.843h.422v7.843h9.361v-7.843h.084Zm2.277 3.458c-.084.084-.169.084-.337.169Z" fill="#4d586c"/><g data-name="Group 16293" fill="#e81c28"><path data-name="Path 6367" d="M4.199 27.098h34.154v-24.2H4.199v24.2Zm32.889-1.349H5.548V4.332h31.54v21.42Z"/><path data-name="Path 6368" d="M40.208 1.127A3.258 3.258 0 0 0 37.931.2H4.7a3.151 3.151 0 0 0-3.2 3.2v23.95a3.276 3.276 0 0 0 3.2 3.289h11.9v7.337H9.849V42.2h23.275v-4.221h-6.746v-7.336h11.553a3.123 3.123 0 0 0 3.2-3.289V3.4a3.258 3.258 0 0 0-.923-2.273ZM25.534 37.979h-8.1v-7.336l.084-.337c0-.084.084-.253.084-.337h7.927Zm14.252-10.541a1.784 1.784 0 0 1-1.855 1.94H26.378v-.253H16.6v.253H4.7a1.962 1.962 0 0 1-1.94-1.94V3.4A1.908 1.908 0 0 1 4.7 1.464h33.231a1.8 1.8 0 0 1 1.349.59 2.034 2.034 0 0 1 .59 1.434v23.95Z"/></g></g></g><g data-name="Group 16348"><path data-name="Rectangle 3709" fill="none" d="M900 0h48v48h-48z"/><g data-name="Group 16316"><path data-name="Path 6369" d="M944.531 12.847a34.234 34.234 0 0 0-41.081 0 1.075 1.075 0 0 0-.45.811 1.394 1.394 0 0 0 .27.991 1.075 1.075 0 0 0 .811.45c.36 0 .721 0 .9-.27a31.8 31.8 0 0 1 38.018 0 1.023 1.023 0 0 0 .721.27 1.291 1.291 0 0 0 .991-.45 1.276 1.276 0 0 0-.18-1.8Z" fill="#e81c28"/><path data-name="Path 6370" d="M938.856 19.874a23.534 23.534 0 0 0-14.957-4.955 23.28 23.28 0 0 0-14.863 4.955 1.532 1.532 0 0 0-.541.9 1.017 1.017 0 0 0 .27.991 1.251 1.251 0 0 0 .9.45h.09a1.157 1.157 0 0 0 .9-.36 21.019 21.019 0 0 1 13.333-4.414 21.019 21.019 0 0 1 13.333 4.414 1.23 1.23 0 0 0 .991.36 1.109 1.109 0 0 0 .9-.45 1.816 1.816 0 0 0 .27-.991 1.652 1.652 0 0 0-.626-.9Zm-14.865 3.513a15.106 15.106 0 0 0-9.279 3.063 1.285 1.285 0 0 0-.18 1.8 1.109 1.109 0 0 0 .9.45h.18a1.453 1.453 0 0 0 .811-.27 12.408 12.408 0 0 1 7.658-2.523 12.408 12.408 0 0 1 7.658 2.523 1.738 1.738 0 0 0 .9.27 1.251 1.251 0 0 0 .9-.45 1.285 1.285 0 0 0-.18-1.8 15.563 15.563 0 0 0-9.369-3.063Z" fill="#e81c28"/><path data-name="Path 6371" d="M923.991 31.676a4.685 4.685 0 0 0 0 9.369 4.77 4.77 0 0 0 4.685-4.685 4.71 4.71 0 0 0-4.685-4.684Zm0 7.568a2.793 2.793 0 1 1 2.793-2.793 2.807 2.807 0 0 1-2.793 2.793Z" fill="#4d586c"/></g></g><g data-name="Group 16349"><path data-name="Rectangle 3710" fill="none" d="M960 0h48v48h-48z"/><g data-name="Group 16317" fill="#999" stroke="rgba(0,0,0,0)" fill-rule="evenodd"><path data-name="Path 6372" d="M998.245 38.494a1.043 1.043 0 0 1-1-1.029 11.8 11.8 0 0 0-11.64-11.934 11.8 11.8 0 0 0-11.636 11.937 1.043 1.043 0 0 1-1 1.029 1.043 1.043 0 0 1-1-1.029 13.834 13.834 0 0 1 13.636-14 13.835 13.835 0 0 1 13.644 14 1.043 1.043 0 0 1-1 1.029Z"/><path data-name="Path 6373" d="M985.6 25.188a8.01 8.01 0 0 1-7.892-8.094A8.009 8.009 0 0 1 985.606 9a8.009 8.009 0 0 1 7.894 8.094 7.924 7.924 0 0 1-7.9 8.094Zm0-14.129a5.97 5.97 0 0 0-5.88 6.035 5.887 5.887 0 1 0 11.769 0 5.885 5.885 0 0 0-5.889-6.036Zm-13.839 24.485H964a1.043 1.043 0 0 1-1-1.029 11.258 11.258 0 0 1 11.369-11.66 10.807 10.807 0 0 1 5.819 1.715.958.958 0 0 1 .334 1.372.908.908 0 0 1-1.337.343 9.244 9.244 0 0 0-14.178 7.133h6.687a1.068 1.068 0 0 1 .067 2.126Z"/><path data-name="Path 6374" d="M974.436 24.777a6.8 6.8 0 0 1-6.688-6.86 6.8 6.8 0 0 1 6.688-6.859 6.529 6.529 0 0 1 4.747 1.989 1.011 1.011 0 0 1 0 1.441.954.954 0 0 1-1.4 0 4.7 4.7 0 0 0-3.343-1.441 4.757 4.757 0 0 0-4.681 4.8 4.755 4.755 0 0 0 4.681 4.8 4.663 4.663 0 0 0 3.875-2.054.976.976 0 0 1 1.4-.274 1.032 1.032 0 0 1 .267 1.441 6.634 6.634 0 0 1-5.55 3.018Zm29.426 10.768h-5.351a1.029 1.029 0 0 1 0-2.058h4.347a9.511 9.511 0 0 0-8.427-8.437 1.016 1.016 0 0 1-.871-.961 1.028 1.028 0 0 1 .8-1.028 4.8 4.8 0 0 0 3.818-4.668 5.245 5.245 0 0 0-5.084-5 1.03 1.03 0 0 1 0-2.059 7.278 7.278 0 0 1 7.09 7.059 6.826 6.826 0 0 1-2.542 5.351A11.563 11.563 0 0 1 1005 34.512a1.285 1.285 0 0 1-1.138 1.029Z"/></g></g><g data-name="Group 16350"><path data-name="Rectangle 3711" fill="none" d="M1020 0h48v48h-48z"/><path data-name="Path 6386" d="M1063.777 10.922h-11.164V9.691A3.7 3.7 0 0 0 1048.922 6h-9.844a3.7 3.7 0 0 0-3.691 3.691v1.23h-11.157a1.234 1.234 0 0 0-1.23 1.231v27.07a3.7 3.7 0 0 0 3.691 3.691h34.618a3.7 3.7 0 0 0 3.691-3.69V12.174a1.2 1.2 0 0 0-1.223-1.252Zm-25.929-1.231a1.232 1.232 0 0 1 1.23-1.23h9.844a1.232 1.232 0 0 1 1.23 1.23v1.23h-12.3Zm24.214 3.692-3.821 11.463a1.228 1.228 0 0 1-1.167.841h-6.922v-1.23a1.23 1.23 0 0 0-1.23-1.23h-9.844a1.23 1.23 0 0 0-1.23 1.23v1.23h-6.922a1.228 1.228 0 0 1-1.167-.841l-3.821-11.463Zm-14.371 12.3v2.461h-7.382v-2.456Zm14.848 13.54a1.232 1.232 0 0 1-1.23 1.23h-34.618a1.232 1.232 0 0 1-1.23-1.23V19.735l1.963 5.89a3.686 3.686 0 0 0 3.5 2.524h6.922v1.23a1.23 1.23 0 0 0 1.23 1.23h9.844a1.23 1.23 0 0 0 1.23-1.23v-1.23h6.922a3.686 3.686 0 0 0 3.5-2.524l1.963-5.89Zm0 0" fill="#999"/></g><g data-name="Group 16351"><path data-name="Rectangle 3712" fill="none" d="M1080 0h48v48h-48z"/><g data-name="Group 16318"><path data-name="Path 6376" d="M1090.685 40.039a.971.971 0 0 1-1.026-.939V21.9a.949.949 0 0 1 .941-.941h.085a.949.949 0 0 1 .941.941v17.2a.9.9 0 0 1-.941.941Zm-6.67 4.02a.971.971 0 0 1 .941-1.026h38.234a.949.949 0 0 1 .941.941v.086a.949.949 0 0 1-.941.941h-38.236a.949.949 0 0 1-.939-.942Zm33.446-4.02a.971.971 0 0 1-1.029-.939V21.9a.949.949 0 0 1 .941-.941h.086a.949.949 0 0 1 .941.941v17.2a.949.949 0 0 1-.941.941Zm6.244-22.411c-6.415-4.79-12.831-9.666-19.161-14.456A.444.444 0 0 0 1104.2 3h-.171a.649.649 0 0 0-.342.171c-6.5 4.79-12.916 9.666-19.332 14.456a.789.789 0 0 0 .428 1.454h38.493a.789.789 0 0 0 .427-1.454ZM1104.029 4.8c5.646 4.277 11.291 8.468 16.937 12.745h-33.788c5.56-4.28 11.206-8.557 16.851-12.745Z" fill="#e81c28"/><path data-name="Path 6377" d="M1104.114 16.088a3.079 3.079 0 1 1 3.079-3.079 3.067 3.067 0 0 1-3.079 3.079Zm0-5.3a2.224 2.224 0 1 0 2.221 2.22 2.265 2.265 0 0 0-2.224-2.224Z" fill="#e81c28"/><path data-name="Path 6378" d="M1107.451 40.039a1.87 1.87 0 0 1-.428-.257 2.6 2.6 0 0 1-.77-1.112c-.428-1.026-.6-2.138-.941-3.165a7.225 7.225 0 0 0-.428-1.454 2.624 2.624 0 0 0-.77-1.2 2.232 2.232 0 0 0-1.454-.6 17.88 17.88 0 0 1-2.138-.086h-.855a.74.74 0 0 1-.77-.855.9.9 0 0 1 .77-.77h3.163a2.8 2.8 0 0 0 2.566-1.54c0-.086 0-.086.086-.171h-6.414a.947.947 0 0 1-.855-.428.878.878 0 0 1 .6-1.283h6.672a3.162 3.162 0 0 0-.428-.941 2.539 2.539 0 0 0-1.627-.847 5.647 5.647 0 0 0-1.2-.086h-3.162a.846.846 0 0 1-.428-1.625c.086 0 .086 0 .171-.086h10.265c.086 0 .086 0 .171.086a.862.862 0 0 1 .086 1.54 1.085 1.085 0 0 1-.513.086h-1.882a5.156 5.156 0 0 1 .77 1.882h1.2a.93.93 0 0 1 .855.6.833.833 0 0 1-.77 1.112h-1.114c-.342 0-.342 0-.428.257a3.221 3.221 0 0 1-.77 1.283 5.62 5.62 0 0 1-1.451 1.021.084.084 0 0 0-.086.086h.086a2.6 2.6 0 0 1 1.112 1.026 7.4 7.4 0 0 1 .855 2.053c.257 1.026.513 2.053.77 3.165a4.584 4.584 0 0 0 .428.941 1.035 1.035 0 0 1-.171 1.2 1.789 1.789 0 0 1-.513.342c0-.171-.171-.171-.257-.171Z" fill="#4d586c"/></g></g><g data-name="Group 16450"><path data-name="Rectangle 3711" fill="none" d="M1020 0h48v48h-48z"/><path data-name="Path 6386" d="M1063.777 10.922h-11.164V9.691A3.7 3.7 0 0 0 1048.922 6h-9.844a3.7 3.7 0 0 0-3.691 3.691v1.23h-11.157a1.234 1.234 0 0 0-1.23 1.231v27.07a3.7 3.7 0 0 0 3.691 3.691h34.618a3.7 3.7 0 0 0 3.691-3.69V12.174a1.2 1.2 0 0 0-1.223-1.252Zm-25.929-1.231a1.232 1.232 0 0 1 1.23-1.23h9.844a1.232 1.232 0 0 1 1.23 1.23v1.23h-12.3Zm24.214 3.692-3.821 11.463a1.228 1.228 0 0 1-1.167.841h-6.922v-1.23a1.23 1.23 0 0 0-1.23-1.23h-9.844a1.23 1.23 0 0 0-1.23 1.23v1.23h-6.922a1.228 1.228 0 0 1-1.167-.841l-3.821-11.463Zm-14.371 12.3v2.461h-7.382v-2.456Zm14.848 13.54a1.232 1.232 0 0 1-1.23 1.23h-34.618a1.232 1.232 0 0 1-1.23-1.23V19.735l1.963 5.89a3.686 3.686 0 0 0 3.5 2.524h6.922v1.23a1.23 1.23 0 0 0 1.23 1.23h9.844a1.23 1.23 0 0 0 1.23-1.23v-1.23h6.922a3.686 3.686 0 0 0 3.5-2.524l1.963-5.89Zm0 0" fill="#999"/></g><g data-name="Group 16453"><path data-name="Rectangle 3679" fill="none" d="M1140 0h48v48h-48z"/><g data-name="Group 16263" fill="#e81c28"><path data-name="Path 6304" d="M1180.634 26.035ZM1178.451 7h-28.902a6.6 6.6 0 0 0-6.549 6.549v21.305a6.6 6.6 0 0 0 6.549 6.546h28.9a6.6 6.6 0 0 0 6.551-6.546V13.549A6.54 6.54 0 0 0 1178.451 7Zm-28.902 30.037a2.162 2.162 0 0 1-2.183-2.183V24.813l9.43-5.938 11.876 18.162h-19.123Zm31.085-2.183a2.162 2.162 0 0 1-2.183 2.183h-4.54l-4.541-6.9 5.763-4.279 5.588 7.6v1.4Zm0-8.819-3.318-4.541a2.4 2.4 0 0 0-1.4-.873 2.29 2.29 0 0 0-1.659.437l-7.335 5.414-7.6-11.788a2.124 2.124 0 0 0-2.969-.611l-8.987 5.588v-6.112a2.162 2.162 0 0 1 2.183-2.183h28.9a2.162 2.162 0 0 1 2.183 2.183v12.486Z"/><path data-name="Path 6305" d="M1168.231 13.2a4.1 4.1 0 1 0 4.1 4.1 4.156 4.156 0 0 0-4.1-4.1Zm0 5.763a1.572 1.572 0 1 1 1.572-1.572 1.565 1.565 0 0 1-1.572 1.572Z"/></g></g><g data-name="Group 16452"><path data-name="Rectangle 3710" fill="none" d="M1200 0h48v48h-48z"/><g data-name="Group 16317" fill="#e81c28" stroke="rgba(0,0,0,0)" fill-rule="evenodd"><path data-name="Path 6372" d="M1238.245 38.494a1.043 1.043 0 0 1-1-1.029 11.8 11.8 0 0 0-11.64-11.934 11.8 11.8 0 0 0-11.636 11.937 1.043 1.043 0 0 1-1 1.029 1.043 1.043 0 0 1-1-1.029 13.834 13.834 0 0 1 13.636-14 13.835 13.835 0 0 1 13.644 14 1.043 1.043 0 0 1-1 1.029Z"/><path data-name="Path 6373" d="M1225.6 25.188a8.01 8.01 0 0 1-7.892-8.094A8.009 8.009 0 0 1 1225.606 9a8.009 8.009 0 0 1 7.894 8.094 7.924 7.924 0 0 1-7.9 8.094Zm0-14.129a5.97 5.97 0 0 0-5.88 6.035 5.887 5.887 0 1 0 11.769 0 5.885 5.885 0 0 0-5.889-6.036Zm-13.839 24.485H1204a1.043 1.043 0 0 1-1-1.029 11.258 11.258 0 0 1 11.369-11.66 10.807 10.807 0 0 1 5.819 1.715.958.958 0 0 1 .334 1.372.908.908 0 0 1-1.337.343 9.244 9.244 0 0 0-14.178 7.133h6.687a1.068 1.068 0 0 1 .067 2.126Z"/><path data-name="Path 6374" d="M1214.436 24.777a6.8 6.8 0 0 1-6.688-6.86 6.8 6.8 0 0 1 6.688-6.859 6.529 6.529 0 0 1 4.747 1.989 1.011 1.011 0 0 1 0 1.441.954.954 0 0 1-1.4 0 4.7 4.7 0 0 0-3.343-1.441 4.757 4.757 0 0 0-4.681 4.8 4.755 4.755 0 0 0 4.681 4.8 4.663 4.663 0 0 0 3.875-2.054.976.976 0 0 1 1.4-.274 1.032 1.032 0 0 1 .267 1.441 6.634 6.634 0 0 1-5.55 3.018Zm29.426 10.768h-5.351a1.029 1.029 0 0 1 0-2.058h4.347a9.511 9.511 0 0 0-8.427-8.437 1.016 1.016 0 0 1-.871-.961 1.028 1.028 0 0 1 .8-1.028 4.8 4.8 0 0 0 3.818-4.668 5.245 5.245 0 0 0-5.084-5 1.03 1.03 0 0 1 0-2.059 7.278 7.278 0 0 1 7.09 7.059 6.826 6.826 0 0 1-2.542 5.351A11.563 11.563 0 0 1 1245 34.512a1.285 1.285 0 0 1-1.138 1.029Z"/></g></g><g data-name="Group 16451"><path data-name="Rectangle 3711" fill="none" d="M1260 0h48v48h-48z"/><path data-name="Path 6386" d="M1303.777 10.922h-11.164V9.691A3.7 3.7 0 0 0 1288.922 6h-9.844a3.7 3.7 0 0 0-3.691 3.691v1.23h-11.157a1.234 1.234 0 0 0-1.23 1.231v27.07a3.7 3.7 0 0 0 3.691 3.691h34.618a3.7 3.7 0 0 0 3.691-3.69V12.174a1.2 1.2 0 0 0-1.223-1.252Zm-25.929-1.231a1.232 1.232 0 0 1 1.23-1.23h9.844a1.232 1.232 0 0 1 1.23 1.23v1.23h-12.3Zm24.214 3.692-3.821 11.463a1.228 1.228 0 0 1-1.167.841h-6.922v-1.23a1.23 1.23 0 0 0-1.23-1.23h-9.844a1.23 1.23 0 0 0-1.23 1.23v1.23h-6.922a1.228 1.228 0 0 1-1.167-.841l-3.821-11.463Zm-14.371 12.3v2.461h-7.382v-2.456Zm14.848 13.54a1.232 1.232 0 0 1-1.23 1.23h-34.618a1.232 1.232 0 0 1-1.23-1.23V19.735l1.963 5.89a3.686 3.686 0 0 0 3.5 2.524h6.922v1.23a1.23 1.23 0 0 0 1.23 1.23h9.844a1.23 1.23 0 0 0 1.23-1.23v-1.23h6.922a3.686 3.686 0 0 0 3.5-2.524l1.963-5.89Zm0 0" fill="#e81c28"/></g><g data-name="Group 16454"><path data-name="Rectangle 3695" fill="none" d="M1320 0h48v48h-48z"/><g data-name="Group 16303" fill="#e81c28" fill-rule="evenodd"><path data-name="Path 6329" d="M1363.856 24.979h-38.567V11.134a1.145 1.145 0 0 0-2.289 0v24.79a1.139 1.139 0 0 0 1.144 1.133h.022a1.139 1.139 0 0 0 1.144-1.134v-8.682h37.4v8.679a1.144 1.144 0 0 0 2.288 0v-9.81a1.139 1.139 0 0 0-1.142-1.131Z"/><path data-name="Path 6330" d="M1328.752 17.845a3.953 3.953 0 1 0 3.953-3.891 3.925 3.925 0 0 0-3.953 3.891Zm6.062 0a2.11 2.11 0 1 1-2.109-2.073 2.094 2.094 0 0 1 2.109 2.073Zm2.925-1.346v4.131a.915.915 0 0 0 .922.907h19.777a.915.915 0 0 0 .921-.907v-4.131a.915.915 0 0 0-.921-.907h-19.778a.915.915 0 0 0-.922.907Zm1.843.906h17.936v2.317h-17.935v-2.317Z"/></g></g><g data-name="Group 16465"><g transform="translate(1501.7)"><g data-name="Group 16360" fill="#e81c28"><path data-name="Path 6395" d="M33.841 30.051a3.112 3.112 0 1 0 3.112 3.112 3.039 3.039 0 0 0-3.112-3.112Zm0 5.335a2.148 2.148 0 0 1-2.223-2.223 2.223 2.223 0 1 1 4.445 0 2.148 2.148 0 0 1-2.222 2.223Z"/><path data-name="Path 6396" d="M42.287 14.491h-.177c0-2.223-1.867-2.489-3.556-2.489V8.357A4.254 4.254 0 0 0 34.2 4H10.369a4.363 4.363 0 0 0-4.357 4.357v3.734c-1.511 0-3.556.178-3.556 2.489A1.116 1.116 0 0 0 1.3 15.736v6.046a1.242 1.242 0 0 0 1.156 1.156c.178 2.045 2.044 2.222 3.556 2.222v13.693h2.223v2.667c0 1.156 1.156 1.689 2.223 1.689s2.223-.533 2.223-1.689v-2.667h19.026v2.667c0 1.156 1.156 1.689 2.312 1.689s2.312-.533 2.312-1.689v-2.667h2.045V25.072c1.689 0 3.379-.178 3.556-2.223h.178a1.242 1.242 0 0 0 1.156-1.156v-6.046a.915.915 0 0 0-.979-1.156ZM2.723 21.96h-.267a.4.4 0 0 1-.267-.267v-6.046c0-.089 0-.267.267-.267h1.333v6.313a.9.9 0 0 1-.089.267Zm3.29 1.778H5.39c-.711 0-1.511-.089-1.6-.978a1.093 1.093 0 0 0 .977-1.16v-6.042c0-.711-.356-1.156-.978-1.156 0-.978.622-1.156 1.245-1.156h.978ZM31.174 5.511a1.6 1.6 0 1 1 0 3.2H13.57a1.6 1.6 0 1 1 0-3.2h17.6Zm6.49 32.363h-2.045v3.556c0 .622-.889.8-1.423.8s-1.423-.178-1.423-.8v-3.555H11.88v3.556c0 .622-.8.8-1.334.8s-1.334-.178-1.334-.8v-3.556H6.9V8.357a3.531 3.531 0 0 1 3.467-3.467h1.956a2.445 2.445 0 0 0-1.334 2.223 2.807 2.807 0 0 0 .625 1.687 2.483 2.483 0 0 0 1.956.8h17.693a2.45 2.45 0 0 0 2.578-2.489 2.445 2.445 0 0 0-1.334-2.223h1.778a3.416 3.416 0 0 1 3.467 3.467v29.52Zm1.6-14.137h-.711V13.424h1.067c.711 0 1.423.178 1.423 1.156a1.116 1.116 0 0 0-1.156 1.156v6.046a1.242 1.242 0 0 0 1.156 1.156c-.178.711-.978.8-1.779.8Zm3.023-1.778h-1.333a.4.4 0 0 1-.267-.267v-6.045c0-.089 0-.267.267-.267h1.334c.267 0 .267.178.267.267v6.046c-.001.089-.179.178-.268.267Z"/><path data-name="Path 6397" d="M10.902 30.051a3.112 3.112 0 1 0 0 6.224 3.112 3.112 0 0 0 0-6.224Zm0 5.335a2.148 2.148 0 0 1-2.223-2.223 2.2 2.2 0 0 1 2.223-2.223 2.223 2.223 0 1 1 0 4.445Z"/><path data-name="Path 6398" d="M29.307 31.117a3.8 3.8 0 0 0-2.937-1.689h-7.91a3.666 3.666 0 0 0-2.934 1.689L14.37 32.54h.622a1.128 1.128 0 0 0-.089.533 1.675 1.675 0 0 0 .178.711h-.711l1.067 1.423a3.585 3.585 0 0 0 2.933 1.512h7.913a3.469 3.469 0 0 0 2.934-1.511l1.067-1.423h-.622a1.675 1.675 0 0 0 .178-.711 1.128 1.128 0 0 0-.089-.533h.619Zm-10.847-.8h7.91a2.619 2.619 0 0 1 2.223 1.334H16.148a3.139 3.139 0 0 1 2.312-1.334Zm7.824 5.511H18.37a2.458 2.458 0 0 1-2.223-1.156h12.449a2.949 2.949 0 0 1-2.312 1.156Zm2.134-2.134H16.326c-.711 0-.711-1.334 0-1.334h12c.803.002.803 1.336.092 1.336Z"/><path data-name="Path 6399" d="M34.197 10.668H10.369a3.277 3.277 0 0 0-3.112 3.112v10.136a3.147 3.147 0 0 0 3.112 3.112h14.937a.807.807 0 0 1-.622-.267c-.445 0 .533-.267.356-.622h-2.135V11.557h11.292a2.256 2.256 0 0 1 2.223 2.223v10.136a2.4 2.4 0 0 1-1.689 2.312c-.089.533-.445.711-.978.889h.356a3.039 3.039 0 0 0 3.112-3.112V13.78a2.956 2.956 0 0 0-3.024-3.112Zm-12.54 15.559H10.369a2.258 2.258 0 0 1-2.223-2.223V13.78a2.39 2.39 0 0 1 2.223-2.223h11.288Z"/></g><circle data-name="Ellipse 225" cx="2.667" cy="2.667" r="2.667" transform="translate(26.817 15.558)" fill="none" stroke="#4d586c" stroke-miterlimit="10"/><g data-name="Group 16361"><path data-name="Path 6400" d="M29.485 22.049a4.41 4.41 0 0 1 4.445 4.179h-8.891a4.41 4.41 0 0 1 4.445-4.179m0-.889a5.35 5.35 0 0 0-5.334 5.335 1.318 1.318 0 0 0 .089.622h10.58c0-.178.089-.445.089-.622a5.426 5.426 0 0 0-5.423-5.335Z" fill="#4d586c"/></g></g><g data-name="Group 16462"><g data-name="Group 16455"><path data-name="Rectangle 3695" fill="none" d="M1500 0h48v48h-48z"/></g></g></g><g data-name="Group 16464"><path data-name="Path 6409" d="M1470.8 5h-10.179a7.046 7.046 0 0 0-7.014 7.014v13.943a1.317 1.317 0 0 0 .855 1.283 1.085 1.085 0 0 0 .513.086 1.777 1.777 0 0 0 1.032-.426l4.191-4.191h10.602a5.64 5.64 0 0 0 5.646-5.646v-6.417A5.7 5.7 0 0 0 1470.8 5Zm3.935 5.646v6.415A3.98 3.98 0 0 1 1470.8 21h-10.693a1.578 1.578 0 0 0-1.026.428l-3.674 3.672V12.014a5.184 5.184 0 0 1 5.214-5.214h10.179a3.907 3.907 0 0 1 3.935 3.846Z" fill="#4d586c"/><g data-name="Group 16377"><path data-name="Path 6410" d="M1482.605 37.334a5.963 5.963 0 0 0-1.625-.513 2.78 2.78 0 0 0 .941-2.138v-1.2a2.848 2.848 0 0 0-2.823-2.821h-.428a2.848 2.848 0 0 0-2.823 2.823v1.2a2.855 2.855 0 0 0 1.026 2.138 7.755 7.755 0 0 0-1.625.428 4.465 4.465 0 0 0-2.31 3.849v2.4H1485v-2.31a4.734 4.734 0 0 0-2.395-3.856Z" fill="#e81c28"/></g><g data-name="Group 16378"><path data-name="Path 6411" d="M1467.721 37.334a5.963 5.963 0 0 0-1.625-.513 2.78 2.78 0 0 0 .945-2.139v-1.2a2.848 2.848 0 0 0-2.827-2.82h-.342a2.848 2.848 0 0 0-2.823 2.823v1.2a2.855 2.855 0 0 0 1.026 2.138 7.755 7.755 0 0 0-1.625.428 4.465 4.465 0 0 0-2.309 3.847v2.4h12.061v-2.31a5.03 5.03 0 0 0-2.481-3.854Z" fill="#e81c28"/></g><g data-name="Group 16379"><path data-name="Path 6412" d="M1452.666 37.334a5.963 5.963 0 0 0-1.625-.513 2.78 2.78 0 0 0 .941-2.138v-1.2a2.848 2.848 0 0 0-2.823-2.821h-.428a2.848 2.848 0 0 0-2.823 2.823v1.2a2.855 2.855 0 0 0 1.026 2.138 7.755 7.755 0 0 0-1.625.428 4.465 4.465 0 0 0-2.309 3.847v2.4h12.061v-2.31a4.734 4.734 0 0 0-2.395-3.854Z" fill="#e81c28"/></g><g data-name="Group 16463"><g data-name="Group 16455"><path data-name="Rectangle 3695" fill="none" d="M1440 0h48v48h-48z"/></g></g></g><g data-name="Group 16478"><path data-name="Path 6551" d="M1422.693 17.031a4.7 4.7 0 1 0-6.646 0 4.68 4.68 0 0 0 6.646 0Z" fill="#e81c28"/><g data-name="Group 16449" fill="#4d586c"><path data-name="Path 6552" d="M1421.4 33.462a5.368 5.368 0 0 0-3.969-1.66 5.727 5.727 0 0 0-4.062 1.662 3.819 3.819 0 0 1-5.446-.092 5.629 5.629 0 0 0-7.846 0 3.928 3.928 0 0 1-5.538 0 5.427 5.427 0 0 0-3.97-1.57 5.368 5.368 0 0 0-3.969 1.66l-3.323 3.23a.788.788 0 0 0 0 1.2.968.968 0 0 0 1.2 0l3.323-3.323a3.956 3.956 0 0 1 5.631 0 5.629 5.629 0 0 0 7.846 0 3.958 3.958 0 0 1 5.631.092 5.516 5.516 0 0 0 7.754 0 3.752 3.752 0 0 1 2.862-1.108 4 4 0 0 1 2.769 1.2l3.138 3.231a.849.849 0 0 0 1.2-1.2Z"/><path data-name="Path 6553" d="m1384.477 31.156 3.323-3.325a3.956 3.956 0 0 1 5.631 0 5.629 5.629 0 0 0 7.846 0 3.958 3.958 0 0 1 5.631.092 5.516 5.516 0 0 0 7.754 0 3.971 3.971 0 0 1 2.862-1.108 4.05 4.05 0 0 1 2.862 1.2l3.138 3.231a.849.849 0 0 0 1.2-1.2l-3.139-3.23a5.368 5.368 0 0 0-3.97-1.66 5.368 5.368 0 0 0-3.969 1.662 3.819 3.819 0 0 1-5.446-.092 5.629 5.629 0 0 0-7.846 0 3.928 3.928 0 0 1-5.538 0 5.427 5.427 0 0 0-3.97-1.57 5.368 5.368 0 0 0-3.969 1.66l-3.6 3.14a.8.8 0 0 0-.277.554.658.658 0 0 0 .277.554.863.863 0 0 0 1.2.092Z"/></g><path data-name="Path 6554" d="m1391.584 21.277 12.369-3.689a1.6 1.6 0 0 1 1.292.277 1.284 1.284 0 0 1 0 1.754l-3.507 2.489a9.3 9.3 0 0 1 2.308-.277 9.051 9.051 0 0 1 6.185 2.492 1.016 1.016 0 0 0 .554.277.6.6 0 0 0 .462-.185 8.791 8.791 0 0 1 6.277-2.585h.554a9.706 9.706 0 0 0-1.294-1.842l-5.262-5.262a5.708 5.708 0 0 0-5.908-1.754l-15.044 4.616a1.966 1.966 0 0 0-1.108 2.4 1.768 1.768 0 0 0 2.122 1.289Z" fill="#e81c28"/><g data-name="Group 16477"><g data-name="Group 16474"><g data-name="Group 16470"><g data-name="Group 16466"><g data-name="Group 16463"><g data-name="Group 16455"><path data-name="Rectangle 3695" fill="none" d="M1380 0h48v48h-48z"/></g></g></g></g></g></g></g></g></g></svg>